<svg width="64" height="64" viewBox="0 0 64 64" fill="none" xmlns="http://www.w3.org/2000/svg">
  <!-- Shadow/Background -->
  <ellipse cx="32" cy="58" rx="8" ry="3" fill="#000000" opacity="0.15"/>
  
  <!-- Location Pin Shape -->
  <path d="M32 4C21.5066 4 13 12.5066 13 23C13 28.8 16.4 36.8 24.8 48.4C26.9333 51.4667 28.8 53.8667 30.4 55.6C30.9333 56.2667 31.4667 56.6667 32 56.6667C32.5333 56.6667 33.0667 56.2667 33.6 55.6C35.2 53.8667 37.0667 51.4667 39.2 48.4C47.6 36.8 51 28.8 51 23C51 12.5066 42.4934 4 32 4Z" fill="#E8F5F3"/>
  
  <!-- Green Circle Background -->
  <circle cx="32" cy="23" r="14" fill="#2D9B88"/>
  
  <!-- Paw Print -->
  <g transform="translate(32, 23)">
    <!-- Main Pad -->
    <ellipse cx="0" cy="2" rx="4.5" ry="5.5" fill="white"/>
    
    <!-- Top Left Toe -->
    <ellipse cx="-4" cy="-3.5" rx="2.2" ry="3" fill="white" transform="rotate(-15 -4 -3.5)"/>
    
    <!-- Top Center Toe -->
    <ellipse cx="0" cy="-5" rx="2.2" ry="3" fill="white"/>
    
    <!-- Top Right Toe -->
    <ellipse cx="4" cy="-3.5" rx="2.2" ry="3" fill="white" transform="rotate(15 4 -3.5)"/>
  </g>
  
  <!-- Border for depth -->
  <path d="M32 4C21.5066 4 13 12.5066 13 23C13 28.8 16.4 36.8 24.8 48.4C26.9333 51.4667 28.8 53.8667 30.4 55.6C30.9333 56.2667 31.4667 56.6667 32 56.6667C32.5333 56.6667 33.0667 56.2667 33.6 55.6C35.2 53.8667 37.0667 51.4667 39.2 48.4C47.6 36.8 51 28.8 51 23C51 12.5066 42.4934 4 32 4Z" fill="none" stroke="#2D9B88" stroke-width="2" stroke-linecap="round" stroke-linejoin="round"/>
</svg>
